<svg width="512" height="775" viewBox="0 0 512 775" fill="none" xmlns="http://www.w3.org/2000/svg">
<g filter="url(#filter0_d_591_234)">
<rect y="54.0791" width="396" height="713" rx="40" transform="rotate(-7.84902 0 54.0791)" fill="#A6A6A6" shape-rendering="crispEdges"/>
<path d="M143.613 547.08L138.696 511.418L143.79 510.715L148.004 541.285L168.378 538.476L169.08 543.57L143.613 547.08ZM175.718 542.654L175.016 537.561L180.109 536.859L178.003 521.579L172.909 522.281L172.207 517.187L182.394 515.783L185.203 536.157L190.296 535.455L190.998 540.548L175.718 542.654ZM176.598 511.392L175.895 506.29L180.988 505.587L181.692 510.69L176.598 511.392ZM195.53 524.353L194.828 519.259L199.921 518.557L200.623 523.65L195.53 524.353ZM218.01 536.824L216.606 526.637L201.325 528.744L200.623 523.65L215.903 521.544L215.201 516.451L199.921 518.557L199.219 513.464L219.593 510.655L223.103 536.122L218.01 536.824ZM229.741 535.207L229.039 530.114L239.226 528.709L239.928 533.803L229.741 535.207ZM223.946 530.816L221.137 510.442L226.231 509.74L229.039 530.114L223.946 530.816ZM245.022 533.101L244.32 528.007L239.226 528.709L238.524 523.616L243.617 522.914L241.511 507.633L246.604 506.931L250.115 532.398L245.022 533.101ZM256.753 531.483L256.051 526.39L261.144 525.688L259.038 510.408L253.944 511.11L253.242 506.016L263.429 504.612L266.238 524.986L271.331 524.283L272.033 529.377L256.753 531.483ZM257.634 500.221L256.93 495.118L262.024 494.416L262.727 499.518L257.634 500.221ZM277.969 523.368L275.863 508.088L280.956 507.386L283.063 522.666L277.969 523.368ZM280.956 507.386L280.254 502.293L290.441 500.888L291.143 505.982L280.956 507.386ZM283.765 527.76L283.063 522.666L298.343 520.56L296.939 510.373L291.845 511.075L291.143 505.982L296.237 505.28L294.129 489.991L299.222 489.288L304.139 524.951L283.765 527.76ZM310.777 524.036L310.074 518.943L315.168 518.24L313.061 502.96L307.968 503.662L307.266 498.569L317.453 497.165L320.261 517.538L325.355 516.836L326.057 521.93L310.777 524.036ZM311.657 492.773L310.954 487.671L316.047 486.969L316.75 492.071L311.657 492.773ZM342.882 519.61L342.18 514.517L352.366 513.112L353.069 518.206L342.882 519.61ZM352.366 513.112L351.664 508.019L356.758 507.317L357.46 512.41L352.366 513.112ZM337.086 515.219L334.278 494.845L329.184 495.547L328.482 490.454L333.575 489.752L332.872 484.65L337.965 483.947L338.669 489.05L343.762 488.347L344.464 493.441L339.371 494.143L342.18 514.517L337.086 515.219ZM359.707 517.291L359.004 512.197L369.191 510.793L369.893 515.886L359.707 517.291ZM369.191 510.793L367.787 500.606L377.974 499.202L378.676 504.295L373.583 504.997L374.285 510.091L369.191 510.793ZM362.694 501.308L361.991 496.215L367.085 495.513L367.787 500.606L362.694 501.308ZM356.898 496.917L356.196 491.824L361.289 491.121L361.991 496.215L356.898 496.917ZM377.974 499.202L376.57 489.015L381.663 488.313L383.067 498.5L377.974 499.202Z" fill="#1C1C1C"/>
<path d="M169.392 671.175L162.291 619.662L169.648 618.648L175.735 662.804L205.164 658.747L206.178 666.104L169.392 671.175ZM215.766 664.782L214.752 657.425L236.824 654.382L237.838 661.739L215.766 664.782ZM207.395 658.439L204.352 636.368L211.71 635.353L214.752 657.425L207.395 658.439ZM236.824 654.382L233.781 632.311L241.138 631.296L244.181 653.368L236.824 654.382ZM211.71 635.353L210.695 627.996L232.767 624.954L233.781 632.311L211.71 635.353ZM254.783 659.403L253.769 652.046L275.841 649.004L276.855 656.361L254.783 659.403ZM275.841 649.004L274.826 641.646L282.184 640.632L283.198 647.989L275.841 649.004ZM246.412 653.06L243.369 630.989L250.726 629.975L253.769 652.046L246.412 653.06ZM250.726 629.975L249.712 622.618L271.784 619.575L272.798 626.932L250.726 629.975ZM308.515 651.996L307.5 644.639L314.858 643.625L315.872 650.982L308.515 651.996ZM300.143 645.653L299.129 638.296L306.486 637.282L307.5 644.639L300.143 645.653ZM298.115 630.939L297.101 623.582L304.458 622.568L305.472 629.925L298.115 630.939ZM304.458 622.568L303.444 615.21L310.801 614.196L311.815 621.553L304.458 622.568ZM286.443 655.039L279.342 603.526L286.699 602.512L290.758 631.953L298.115 630.939L299.129 638.296L291.772 639.31L293.8 654.025L286.443 655.039ZM332.817 648.646L331.803 641.289L353.875 638.246L354.889 645.603L332.817 648.646ZM324.446 642.303L321.403 620.232L328.76 619.217L329.775 626.575L351.846 623.532L350.832 616.175L358.189 615.16L360.218 629.875L330.789 633.932L331.803 641.289L324.446 642.303ZM328.76 619.217L327.746 611.86L349.818 608.818L350.832 616.175L328.76 619.217ZM363.463 636.924L360.42 614.853L367.777 613.839L370.82 635.91L363.463 636.924ZM367.777 613.839L366.763 606.482L381.477 604.453L382.492 611.81L367.777 613.839ZM371.834 643.267L370.82 635.91L392.892 632.868L390.863 618.153L383.506 619.167L382.492 611.81L389.849 610.796L386.804 588.712L394.162 587.698L401.263 639.211L371.834 643.267Z" fill="#1C1C1C"/>
<g clip-path="url(#clip0_591_234)">
<rect x="27.3258" y="76.5581" width="348" height="350" rx="32" transform="rotate(-7.84902 27.3258 76.5581)" fill="#1C1C1C"/>
<path fill-rule="evenodd" clip-rule="evenodd" d="M316.659 215.059L270.195 424.397C270.135 424.665 270.071 424.932 270.003 425.197C269.885 425.77 269.763 426.344 269.636 426.917C256.651 485.417 198.702 522.314 140.203 509.329C81.704 496.345 44.8068 438.396 57.7911 379.897C57.8327 379.71 57.8747 379.523 57.9172 379.336C57.9356 379.248 57.9545 379.161 57.9739 379.073L99.386 192.496C101.162 184.495 109.088 179.448 117.089 181.224C125.09 183 130.136 190.926 128.36 198.927L102.922 313.537C110.095 308.686 117.841 304.692 125.991 301.662L158.164 156.71C159.824 149.234 167.23 144.518 174.706 146.178C182.183 147.837 186.898 155.243 185.239 162.72L155.842 295.164C162.683 294.67 169.649 294.823 176.661 295.674L196.44 206.563C198.274 198.3 206.459 193.088 214.723 194.922C222.986 196.756 228.198 204.942 226.364 213.205L206.301 303.594C212.433 306.202 218.235 309.339 223.664 312.939L235.033 261.719C236.722 254.111 244.258 249.313 251.865 251.001C259.473 252.69 264.271 260.226 262.582 267.833L249.747 325.661C248.845 329.727 251.409 333.755 255.475 334.657C259.542 335.56 263.569 332.995 264.472 328.929L291.01 209.366C292.582 202.283 299.598 197.816 306.681 199.388C313.764 200.96 318.231 207.976 316.659 215.059ZM281.397 184.711C283.132 176.894 278.201 169.149 270.383 167.414C262.566 165.679 254.821 170.61 253.086 178.428L248.752 197.952C247.017 205.77 251.948 213.515 259.766 215.25C267.584 216.985 275.328 212.054 277.063 204.236L281.397 184.711Z" fill="#575757"/>
</g>
</g>
<defs>
<filter id="filter0_d_591_234" x="0" y="0" width="517.66" height="780.399" filterUnits="userSpaceOnUse" color-interpolation-filters="sRGB">
<feFlood flood-opacity="0" result="BackgroundImageFix"/>
<feColorMatrix in="SourceAlpha" type="matrix" values="0 0 0 0 0 0 0 0 0 0 0 0 0 0 0 0 0 0 127 0" result="hardAlpha"/>
<feOffset dx="24" dy="16"/>
<feGaussianBlur stdDeviation="2"/>
<feComposite in2="hardAlpha" operator="out"/>
<feColorMatrix type="matrix" values="0 0 0 0 0.218461 0 0 0 0 0.218461 0 0 0 0 0.218461 0 0 0 1 0"/>
<feBlend mode="normal" in2="BackgroundImageFix" result="effect1_dropShadow_591_234"/>
<feBlend mode="normal" in="SourceGraphic" in2="effect1_dropShadow_591_234" result="shape"/>
</filter>
<clipPath id="clip0_591_234">
<rect x="27.3258" y="76.5581" width="348" height="350" rx="32" transform="rotate(-7.84902 27.3258 76.5581)" fill="white"/>
</clipPath>
</defs>
</svg>
