<svg width="512" height="775" viewBox="0 0 512 775" fill="none" xmlns="http://www.w3.org/2000/svg">
<g filter="url(#filter0_d_598_462)">
<rect y="54.0791" width="396" height="713" rx="40" transform="rotate(-7.84902 0 54.0791)" fill="#A6A6A6" shape-rendering="crispEdges"/>
<path d="M199.42 484.611L198.016 474.424L203.109 473.722L204.513 483.909L199.42 484.611ZM191.34 501.295L186.423 465.633L191.517 464.931L192.22 470.033L197.314 469.331L198.016 474.424L192.922 475.126L196.433 500.593L191.34 501.295ZM211.713 498.487L208.203 473.02L203.109 473.722L202.407 468.628L207.5 467.926L206.797 462.824L211.89 462.122L216.807 497.785L211.713 498.487ZM223.445 496.87L222.743 491.776L227.836 491.074L225.73 475.794L220.636 476.496L219.934 471.402L230.121 469.998L232.929 490.372L238.023 489.67L238.725 494.763L223.445 496.87ZM224.325 465.607L223.622 460.505L228.715 459.803L229.419 464.905L224.325 465.607ZM265.737 491.039L262.928 470.666L268.022 469.964L270.83 490.337L265.737 491.039ZM245.363 493.848L241.852 468.381L246.946 467.679L247.648 472.772L252.741 472.07L253.443 477.163L248.35 477.866L250.456 493.146L245.363 493.848ZM252.741 472.07L252.039 466.977L262.226 465.572L262.928 470.666L252.741 472.07ZM282.562 488.72L281.859 483.627L292.046 482.222L292.749 487.316L282.562 488.72ZM292.046 482.222L291.344 477.129L296.438 476.427L297.14 481.52L292.046 482.222ZM276.766 484.329L273.957 463.955L268.864 464.657L268.162 459.564L273.255 458.862L272.552 453.76L277.645 453.057L278.349 458.16L283.442 457.457L284.144 462.551L279.051 463.253L281.859 483.627L276.766 484.329ZM304.48 485.699L303.778 480.605L313.965 479.201L314.667 484.294L304.48 485.699ZM319.76 483.592L319.058 478.499L324.152 477.797L324.854 482.89L319.76 483.592ZM313.965 479.201L313.263 474.107L318.356 473.405L319.058 478.499L313.965 479.201ZM298.684 481.307L297.28 471.12L302.373 470.418L303.778 480.605L298.684 481.307ZM308.169 474.81L307.467 469.716L312.56 469.014L313.263 474.107L308.169 474.81ZM318.356 473.405L317.654 468.312L322.747 467.61L323.449 472.703L318.356 473.405ZM302.373 470.418L301.671 465.325L306.765 464.623L307.467 469.716L302.373 470.418ZM306.765 464.623L306.063 459.529L311.156 458.827L311.858 463.921L306.765 464.623ZM296.578 466.027L295.174 455.84L300.267 455.138L301.671 465.325L296.578 466.027ZM311.156 458.827L310.454 453.734L315.547 453.032L316.249 458.125L311.156 458.827ZM300.267 455.138L299.564 450.036L309.751 448.632L310.454 453.734L300.267 455.138ZM185.208 556.651L180.292 520.989L205.759 517.478L206.462 522.58L186.089 525.389L187.493 535.576L202.773 533.469L203.475 538.563L188.195 540.669L190.302 555.949L185.208 556.651ZM230.487 534.839L229.785 529.745L234.878 529.043L235.581 534.137L230.487 534.839ZM212.22 552.928L208.709 527.461L213.803 526.758L214.505 531.852L219.598 531.15L220.3 536.243L215.207 536.945L217.313 552.226L212.22 552.928ZM219.598 531.15L218.896 526.056L229.083 524.652L229.785 529.745L219.598 531.15ZM244.325 548.502L243.623 543.408L258.903 541.302L259.605 546.395L244.325 548.502ZM238.529 544.111L236.423 528.83L241.516 528.128L242.219 533.222L257.499 531.115L256.797 526.022L261.89 525.32L263.294 535.506L242.921 538.315L243.623 543.408L238.529 544.111ZM241.516 528.128L240.814 523.035L256.095 520.928L256.797 526.022L241.516 528.128ZM271.337 544.778L270.635 539.685L285.915 537.578L286.617 542.672L271.337 544.778ZM265.541 540.387L263.435 525.107L268.528 524.404L269.23 529.498L284.511 527.391L283.808 522.298L288.902 521.596L290.306 531.783L269.932 534.591L270.635 539.685L265.541 540.387ZM268.528 524.404L267.826 519.311L283.106 517.205L283.808 522.298L268.528 524.404ZM293.255 541.757L292.553 536.663L297.646 535.961L296.944 530.868L302.038 530.165L302.74 535.259L318.02 533.152L318.722 538.246L293.255 541.757ZM302.038 530.165L301.335 525.072L306.429 524.37L307.131 529.463L302.038 530.165ZM306.429 524.37L305.727 519.276L290.446 521.383L289.744 516.289L315.211 512.779L315.914 517.872L310.82 518.574L311.522 523.668L306.429 524.37ZM325.36 537.331L324.658 532.237L339.938 530.131L340.641 535.224L325.36 537.331ZM319.565 532.94L317.458 517.659L322.552 516.957L323.254 522.051L338.534 519.944L337.832 514.851L342.925 514.148L344.33 524.335L323.956 527.144L324.658 532.237L319.565 532.94ZM322.552 516.957L321.849 511.864L337.13 509.757L337.832 514.851L322.552 516.957Z" fill="#1C1C1C"/>
<path d="M179.708 663.397L178.694 656.04L186.051 655.026L187.065 662.383L179.708 663.397ZM171.337 657.054L170.322 649.697L177.68 648.683L178.694 656.04L171.337 657.054ZM175.651 633.969L173.623 619.254L180.98 618.24L183.008 632.954L175.651 633.969ZM150.279 667.454L143.178 615.941L172.607 611.885L173.623 619.254L151.551 622.297L153.58 637.011L175.651 633.969L176.665 641.326L169.308 642.34L170.322 649.697L162.965 650.711L161.951 643.354L154.594 644.369L157.636 666.44L150.279 667.454ZM196.653 661.061L195.639 653.704L217.711 650.662L218.725 658.019L196.653 661.061ZM188.282 654.718L185.239 632.647L192.596 631.633L193.611 638.99L215.682 635.947L214.668 628.59L222.025 627.576L224.054 642.29L194.625 646.347L195.639 653.704L188.282 654.718ZM192.596 631.633L191.582 624.275L213.654 621.233L214.668 628.59L192.596 631.633ZM243.027 654.668L242.013 647.311L249.37 646.297L250.385 653.654L243.027 654.668ZM234.656 648.326L232.628 633.611L239.985 632.597L242.013 647.311L234.656 648.326ZM249.37 646.297L247.342 631.583L254.699 630.569L256.728 645.283L249.37 646.297ZM225.27 634.625L223.242 619.911L230.599 618.897L232.628 633.611L225.27 634.625ZM254.699 630.569L252.671 615.854L260.028 614.84L262.056 629.554L254.699 630.569ZM274.687 650.304L273.673 642.947L295.745 639.904L296.759 647.261L274.687 650.304ZM266.316 643.961L263.273 621.89L270.63 620.875L273.673 642.947L266.316 643.961ZM295.745 639.904L292.702 617.833L300.059 616.818L303.102 638.89L295.745 639.904ZM270.63 620.875L269.616 613.518L291.688 610.475L292.702 617.833L270.63 620.875ZM328.419 642.897L327.404 635.54L334.762 634.526L335.776 641.883L328.419 642.897ZM320.047 636.554L319.033 629.197L326.39 628.183L327.404 635.54L320.047 636.554ZM318.019 621.84L317.004 614.482L324.362 613.468L325.376 620.825L318.019 621.84ZM324.362 613.468L323.347 606.111L330.705 605.097L331.719 612.454L324.362 613.468ZM306.347 645.94L299.246 594.427L306.603 593.413L310.662 622.854L318.019 621.84L319.033 629.197L311.676 630.211L313.704 644.925L306.347 645.94ZM352.721 639.547L351.707 632.19L373.778 629.147L374.793 636.504L352.721 639.547ZM344.35 633.204L341.307 611.132L348.664 610.118L349.678 617.475L371.75 614.433L370.736 607.075L378.093 606.061L380.121 620.775L350.693 624.832L351.707 632.19L344.35 633.204ZM348.664 610.118L347.65 602.761L369.722 599.718L370.736 607.075L348.664 610.118ZM383.367 627.825L380.324 605.754L387.681 604.739L390.724 626.811L383.367 627.825ZM387.681 604.739L386.667 597.382L401.381 595.354L402.396 602.711L387.681 604.739ZM391.738 634.168L390.724 626.811L412.795 623.768L410.767 609.054L403.41 610.068L402.396 602.711L409.753 601.697L406.708 579.613L414.066 578.598L421.167 630.111L391.738 634.168Z" fill="#1C1C1C"/>
<g clip-path="url(#clip0_598_462)">
<rect x="27.3258" y="76.5581" width="348" height="350" rx="32" transform="rotate(-7.84902 27.3258 76.5581)" fill="#1C1C1C"/>
<path fill-rule="evenodd" clip-rule="evenodd" d="M148.329 225.677L218.779 23.148C218.87 22.8882 218.964 22.6307 219.063 22.3757C219.246 21.8198 219.434 21.2644 219.627 20.7094C239.315 -35.8871 301.155 -65.808 357.751 -46.1208C414.348 -26.4336 444.269 35.4066 424.582 92.0031C424.519 92.1843 424.455 92.3651 424.391 92.5457C424.363 92.6305 424.334 92.7153 424.304 92.7999L361.514 273.309C358.821 281.05 350.363 285.142 342.623 282.449C334.882 279.757 330.79 271.299 333.482 263.558L372.053 152.676C364.365 156.661 356.208 159.729 347.761 161.793L298.979 302.029C296.463 309.263 288.56 313.087 281.326 310.571C274.093 308.054 270.269 300.151 272.785 292.918L317.358 164.781C310.505 164.478 303.605 163.517 296.739 161.858L266.75 248.07C263.969 256.065 255.233 260.291 247.239 257.51C239.244 254.73 235.018 245.994 237.799 238L268.218 150.551C262.431 147.249 257.032 143.459 252.057 139.254L234.82 188.808C232.259 196.168 224.217 200.059 216.857 197.499C209.497 194.939 205.606 186.897 208.166 179.537L227.627 123.59C228.996 119.656 226.916 115.358 222.982 113.99C219.048 112.621 214.75 114.701 213.382 118.635L173.144 234.309C170.761 241.161 163.273 244.784 156.421 242.4C149.568 240.017 145.946 232.529 148.329 225.677ZM179.83 259.913C177.199 267.476 181.198 275.741 188.761 278.372C196.325 281.003 204.589 277.004 207.22 269.44L213.791 250.551C216.422 242.987 212.423 234.723 204.86 232.092C197.296 229.461 189.032 233.459 186.401 241.023L179.83 259.913Z" fill="#575757"/>
</g>
</g>
<defs>
<filter id="filter0_d_598_462" x="0" y="0" width="517.66" height="780.399" filterUnits="userSpaceOnUse" color-interpolation-filters="sRGB">
<feFlood flood-opacity="0" result="BackgroundImageFix"/>
<feColorMatrix in="SourceAlpha" type="matrix" values="0 0 0 0 0 0 0 0 0 0 0 0 0 0 0 0 0 0 127 0" result="hardAlpha"/>
<feOffset dx="24" dy="16"/>
<feGaussianBlur stdDeviation="2"/>
<feComposite in2="hardAlpha" operator="out"/>
<feColorMatrix type="matrix" values="0 0 0 0 0.218461 0 0 0 0 0.218461 0 0 0 0 0.218461 0 0 0 1 0"/>
<feBlend mode="normal" in2="BackgroundImageFix" result="effect1_dropShadow_598_462"/>
<feBlend mode="normal" in="SourceGraphic" in2="effect1_dropShadow_598_462" result="shape"/>
</filter>
<clipPath id="clip0_598_462">
<rect x="27.3258" y="76.5581" width="348" height="350" rx="32" transform="rotate(-7.84902 27.3258 76.5581)" fill="white"/>
</clipPath>
</defs>
</svg>
