<svg width="513" height="776" viewBox="0 0 513 776" fill="none" xmlns="http://www.w3.org/2000/svg">
<g filter="url(#filter0_d_544_689)">
<rect x="0.29657" y="54.4165" width="396" height="713" rx="40" transform="rotate(-7.84902 0.29657 54.4165)" fill="#A6A6A6" shape-rendering="crispEdges"/>
<path d="M193.823 506.229L189.61 475.668L179.423 477.072L178.72 471.97L204.187 468.459L204.89 473.562L194.704 474.966L198.917 505.526L193.823 506.229ZM215.741 503.207L215.039 498.114L230.32 496.007L231.022 501.101L215.741 503.207ZM209.946 498.816L207.839 483.535L212.933 482.833L215.039 498.114L209.946 498.816ZM230.32 496.007L228.213 480.727L233.306 480.025L235.413 495.305L230.32 496.007ZM212.933 482.833L212.231 477.74L227.511 475.633L228.213 480.727L212.933 482.833ZM247.847 498.781L247.144 493.688L257.331 492.283L258.033 497.377L247.847 498.781ZM257.331 492.283L256.629 487.19L261.723 486.488L262.425 491.581L257.331 492.283ZM242.051 494.39L239.242 474.016L234.149 474.718L233.447 469.625L238.54 468.923L237.837 463.821L242.93 463.118L243.634 468.221L248.727 467.518L249.429 472.612L244.336 473.314L247.144 493.688L242.051 494.39ZM263.969 491.368L263.267 486.275L268.361 485.573L269.063 490.666L263.969 491.368ZM269.765 495.76L269.063 490.666L284.343 488.56L283.641 483.466L268.361 485.573L267.658 480.479L282.939 478.373L282.237 473.279L287.33 472.577L290.139 492.951L269.765 495.76ZM266.956 475.386L266.254 470.292L281.534 468.186L282.237 473.279L266.956 475.386ZM296.777 492.036L296.074 486.943L301.168 486.24L297.657 460.773L292.564 461.475L291.86 456.373L302.047 454.969L306.261 485.538L311.355 484.836L312.057 489.93L296.777 492.036ZM182.598 562.287L181.896 557.193L197.176 555.087L197.878 560.18L182.598 562.287ZM176.803 557.895L176.1 552.802L181.194 552.1L181.896 557.193L176.803 557.895ZM197.176 555.087L195.772 544.9L200.865 544.198L202.27 554.385L197.176 555.087ZM180.492 547.006L179.79 541.913L195.07 539.806L195.772 544.9L180.492 547.006ZM174.696 542.615L173.292 532.428L178.385 531.726L179.79 541.913L174.696 542.615ZM194.368 534.713L193.666 529.62L198.759 528.917L199.461 534.011L194.368 534.713ZM178.385 531.726L177.682 526.624L192.962 524.517L193.666 529.62L178.385 531.726ZM209.61 558.563L208.908 553.47L219.095 552.065L219.797 557.159L209.61 558.563ZM203.814 554.172L201.006 533.798L206.099 533.096L208.908 553.47L203.814 554.172ZM224.89 556.457L224.188 551.363L219.095 552.065L218.392 546.972L223.486 546.27L221.379 530.989L226.473 530.287L229.984 555.754L224.89 556.457ZM249.795 537.453L249.093 532.359L254.187 531.657L254.889 536.75L249.795 537.453ZM231.528 555.541L228.017 530.074L248.391 527.266L249.093 532.359L233.813 534.466L234.515 539.559L249.795 537.453L250.498 542.546L235.217 544.652L236.622 554.839L231.528 555.541ZM276.807 533.729L276.105 528.635L281.199 527.933L281.901 533.027L276.807 533.729ZM258.54 551.818L255.029 526.351L275.403 523.542L276.105 528.635L260.825 530.742L261.527 535.835L276.807 533.729L277.509 538.822L262.229 540.929L263.633 551.116L258.54 551.818ZM290.645 547.392L289.943 542.298L295.036 541.596L291.526 516.129L286.432 516.831L285.729 511.729L295.916 510.325L300.13 540.894L305.223 540.192L305.925 545.285L290.645 547.392ZM312.563 544.37L311.861 539.277L322.048 537.873L322.75 542.966L312.563 544.37ZM322.048 537.873L320.644 527.686L330.831 526.281L331.533 531.375L326.439 532.077L327.142 537.17L322.048 537.873ZM315.55 528.388L314.848 523.294L319.942 522.592L320.644 527.686L315.55 528.388ZM309.755 523.997L309.053 518.903L314.146 518.201L314.848 523.294L309.755 523.997ZM330.831 526.281L329.426 516.095L334.52 515.392L335.924 525.579L330.831 526.281Z" fill="#1C1C1C"/>
<path d="M199.814 656.657L198.8 649.299L206.157 648.285L202.101 618.856L194.743 619.871L193.729 612.513L201.086 611.499L200.07 604.13L207.428 603.115L213.515 647.271L220.872 646.257L221.886 653.614L199.814 656.657ZM238.831 651.278L237.817 643.921L259.889 640.878L260.903 648.235L238.831 651.278ZM243.146 628.192L242.132 620.835L249.489 619.821L250.503 627.178L243.146 628.192ZM230.46 644.935L225.389 608.149L232.746 607.135L235.789 629.206L243.146 628.192L244.16 635.549L236.803 636.564L237.817 643.921L230.46 644.935ZM259.889 640.878L256.846 618.807L249.489 619.821L248.475 612.464L255.832 611.449L254.818 604.092L262.175 603.078L267.246 639.864L259.889 640.878ZM232.746 607.135L231.73 599.765L253.802 596.722L254.818 604.092L232.746 607.135ZM277.848 645.899L276.834 638.542L298.906 635.499L299.92 642.857L277.848 645.899ZM282.163 622.813L281.149 615.456L288.506 614.442L289.52 621.799L282.163 622.813ZM269.477 639.556L264.406 602.77L271.763 601.756L274.806 623.828L282.163 622.813L283.177 630.171L275.82 631.185L276.834 638.542L269.477 639.556ZM298.906 635.499L295.863 613.428L288.506 614.442L287.492 607.085L294.849 606.071L293.835 598.713L301.192 597.699L306.263 634.485L298.906 635.499ZM271.763 601.756L270.747 594.386L292.819 591.344L293.835 598.713L271.763 601.756ZM321.18 617.435L319.151 602.72L326.509 601.706L328.537 616.421L321.18 617.435ZM309.508 641.535L302.407 590.022L309.764 589.008L310.78 596.377L318.137 595.363L319.151 602.72L311.794 603.735L316.865 640.521L309.508 641.535ZM338.937 637.478L333.866 600.692L326.509 601.706L325.494 594.349L332.852 593.335L331.836 585.965L339.193 584.951L346.294 636.464L338.937 637.478Z" fill="#1C1C1C"/>
<g clip-path="url(#clip0_544_689)">
<rect x="27.6224" y="76.8955" width="348" height="350" rx="32" transform="rotate(-7.84902 27.6224 76.8955)" fill="#1C1C1C"/>
<path fill-rule="evenodd" clip-rule="evenodd" d="M148.626 226.014L219.076 23.4854C219.166 23.2256 219.261 22.9681 219.359 22.7131C219.543 22.1572 219.731 21.6018 219.924 21.0468C239.611 -35.5497 301.451 -65.4706 358.048 -45.7834C414.645 -26.0962 444.565 35.744 424.878 92.3405C424.815 92.5217 424.752 92.7025 424.688 92.8831C424.659 92.9679 424.631 93.0527 424.601 93.1373L361.811 273.646C359.118 281.387 350.66 285.479 342.919 282.787C335.178 280.094 331.086 271.636 333.779 263.895L372.349 153.013C364.662 156.998 356.504 160.066 348.057 162.13L299.276 302.367C296.759 309.6 288.856 313.424 281.623 310.908C274.39 308.392 270.566 300.489 273.082 293.255L317.655 165.118C310.802 164.816 303.901 163.855 297.035 162.195L267.046 248.408C264.265 256.402 255.53 260.629 247.535 257.848C239.541 255.067 235.314 246.332 238.095 238.337L268.514 150.889C262.727 147.586 257.329 143.796 252.354 139.591L235.116 189.145C232.556 196.506 224.514 200.397 217.154 197.836C209.794 195.276 205.903 187.234 208.463 179.874L227.924 123.928C229.292 119.994 227.213 115.695 223.279 114.327C219.345 112.959 215.047 115.038 213.678 118.972L173.441 234.646C171.057 241.499 163.57 245.121 156.717 242.738C149.865 240.354 146.242 232.867 148.626 226.014ZM180.126 260.25C177.495 267.814 181.494 276.078 189.058 278.709C196.621 281.34 204.886 277.341 207.517 269.778L214.088 250.888C216.719 243.324 212.72 235.06 205.156 232.429C197.593 229.798 189.328 233.797 186.697 241.36L180.126 260.25Z" fill="#575757"/>
</g>
</g>
<defs>
<filter id="filter0_d_544_689" x="0.29657" y="0.337402" width="517.66" height="780.399" filterUnits="userSpaceOnUse" color-interpolation-filters="sRGB">
<feFlood flood-opacity="0" result="BackgroundImageFix"/>
<feColorMatrix in="SourceAlpha" type="matrix" values="0 0 0 0 0 0 0 0 0 0 0 0 0 0 0 0 0 0 127 0" result="hardAlpha"/>
<feOffset dx="24" dy="16"/>
<feGaussianBlur stdDeviation="2"/>
<feComposite in2="hardAlpha" operator="out"/>
<feColorMatrix type="matrix" values="0 0 0 0 0.218461 0 0 0 0 0.218461 0 0 0 0 0.218461 0 0 0 1 0"/>
<feBlend mode="normal" in2="BackgroundImageFix" result="effect1_dropShadow_544_689"/>
<feBlend mode="normal" in="SourceGraphic" in2="effect1_dropShadow_544_689" result="shape"/>
</filter>
<clipPath id="clip0_544_689">
<rect x="27.6224" y="76.8955" width="348" height="350" rx="32" transform="rotate(-7.84902 27.6224 76.8955)" fill="white"/>
</clipPath>
</defs>
</svg>
