<svg width="362" height="217" viewBox="0 0 362 217" fill="none" xmlns="http://www.w3.org/2000/svg">
<path fill-rule="evenodd" clip-rule="evenodd" d="M36.4861 0H250.918C251.193 0 251.467 0.00468064 251.741 0.0139759C252.326 0.00467031 252.912 0 253.5 0C313.423 0 362 48.5771 362 108.5C362 168.423 313.423 217 253.5 217C253.308 217 253.117 216.999 252.925 216.999C252.836 216.999 252.746 217 252.656 217H61.5382C53.3425 217 46.6986 210.356 46.6986 202.16C46.6986 193.965 53.3425 187.321 61.5382 187.321H178.937C172.648 181.369 167.07 174.672 162.346 167.372H13.8666C6.20828 167.372 0 161.164 0 153.506C0 145.847 6.20828 139.639 13.8666 139.639H149.535C147.569 133.067 146.21 126.234 145.521 119.204H54.2417C45.7773 119.204 38.9155 112.342 38.9155 103.878C38.9155 95.4134 45.7773 88.5516 54.2417 88.5516H146.83C148.047 82.0007 149.853 75.6566 152.191 69.5762H99.7239C91.9312 69.5762 85.614 63.259 85.614 55.4664C85.614 47.6737 91.9312 41.3565 99.7239 41.3565H158.959C163.124 41.3565 166.5 37.9801 166.5 33.815C166.5 29.65 163.124 26.2735 158.959 26.2735H36.4861C29.2308 26.2735 23.3493 20.392 23.3493 13.1368C23.3493 5.88153 29.2308 0 36.4861 0ZM14.5 41C6.49187 41 0 47.4919 0 55.5C0 63.5081 6.49187 70 14.5 70H34.5C42.5081 70 49 63.5081 49 55.5C49 47.4919 42.5081 41 34.5 41H14.5Z" fill="#444444"/>
<circle cx="254.5" cy="108.5" r="94.5" fill="#141414"/>
<path d="M334.547 127.836C323.594 171.765 279.096 198.5 235.156 187.545C191.236 176.593 164.498 132.098 175.456 88.1722C186.404 44.2384 230.902 17.502 274.828 28.4537C318.764 39.4054 345.499 83.906 334.545 127.837L334.546 127.836H334.547Z" fill="#444444"/>
<path d="M291.162 96.3171C292.795 85.4046 284.486 79.5388 273.124 75.6257L276.81 60.8439L267.811 58.6018L264.223 72.9944C261.857 72.4044 259.427 71.8485 257.012 71.2974L260.627 56.8098L251.633 54.5676L247.945 69.3446C245.987 68.8989 244.065 68.4585 242.199 67.9943L242.209 67.9478L229.799 64.8492L227.405 74.4598C227.405 74.4598 234.082 75.99 233.941 76.0842C237.586 76.9937 238.245 79.4057 238.135 81.3176L233.937 98.1576C234.187 98.2213 234.513 98.3135 234.872 98.4578C234.572 98.3832 234.252 98.3019 233.921 98.2225L228.036 121.813C227.591 122.92 226.46 124.581 223.912 123.95C224.003 124.081 217.372 122.318 217.372 122.318L212.904 132.618L224.615 135.537C226.793 136.084 228.928 136.655 231.031 137.193L227.307 152.144L236.296 154.386L239.983 139.594C242.439 140.26 244.822 140.875 247.155 141.455L243.48 156.177L252.479 158.42L256.203 143.496C271.548 146.4 283.087 145.229 287.944 131.351C291.857 120.177 287.749 113.732 279.676 109.529C285.556 108.173 289.985 104.306 291.166 96.3183L291.163 96.3162L291.162 96.3171ZM270.601 125.146C267.82 136.319 249.005 130.279 242.905 128.765L247.847 108.957C253.946 110.479 273.508 113.493 270.602 125.146H270.601ZM273.385 96.1551C270.848 106.319 255.187 101.155 250.107 99.8891L254.588 81.9244C259.668 83.1906 276.027 85.5537 273.385 96.1551H273.385Z" fill="#141414"/>
</svg>
