<svg width="424" height="471" viewBox="0 0 424 471" fill="none" xmlns="http://www.w3.org/2000/svg">
<g filter="url(#filter0_d_591_264)">
<rect width="396" height="713" rx="40" fill="#A6A6A6" shape-rendering="crispEdges"/>
<rect x="24" y="26" width="348" height="350" rx="32" fill="#1C1C1C"/>
<path fill-rule="evenodd" clip-rule="evenodd" d="M83.7186 252.432L143.804 134.657C144.258 133.766 144.763 132.913 145.313 132.101C145.971 130.545 146.689 129.002 147.468 127.475C165.071 92.9708 207.312 79.2699 241.815 96.8727C276.319 114.476 290.02 156.716 272.417 191.22C272.144 191.756 271.865 192.286 271.58 192.812C271.454 193.091 271.321 193.369 271.181 193.644L216.027 301.752C213.619 306.471 207.842 308.345 203.123 305.937C198.404 303.53 196.53 297.752 198.938 293.033L233.424 225.435C228.15 227.308 222.655 228.552 217.064 229.128L173.447 314.623C171.198 319.032 165.799 320.783 161.389 318.534C156.98 316.284 155.229 310.886 157.478 306.476L197.332 228.358C192.971 227.559 188.637 226.335 184.386 224.666L157.572 277.225C155.086 282.099 149.119 284.034 144.245 281.548C139.372 279.061 137.436 273.094 139.923 268.221L167.121 214.908C163.707 212.283 160.584 209.379 157.77 206.247L142.357 236.458C140.068 240.945 134.575 242.726 130.088 240.437C125.601 238.148 123.819 232.655 126.108 228.168L143.509 194.06C144.733 191.662 143.78 188.726 141.382 187.503C138.984 186.279 136.048 187.231 134.824 189.63L98.847 260.15C96.7157 264.327 91.6013 265.986 87.4238 263.855C83.2462 261.723 81.5873 256.609 83.7186 252.432ZM100.868 277.137C98.5154 281.748 100.346 287.393 104.957 289.745C109.569 292.098 115.214 290.267 117.566 285.656L123.441 274.139C125.794 269.528 123.963 263.883 119.352 261.531C114.741 259.178 109.095 261.009 106.743 265.621L100.868 277.137Z" fill="#575757"/>
<path d="M198.602 144.524V138.286C198.602 137.137 199.533 136.206 200.682 136.206H225.635C226.784 136.206 227.715 137.137 227.715 138.286V167.398C227.715 168.546 226.784 169.477 225.635 169.477H219.397V175.714C219.397 176.863 218.461 177.795 217.303 177.795H192.378C191.222 177.795 190.285 176.871 190.285 175.714L190.29 146.605C190.29 145.456 191.226 144.524 192.384 144.524H198.602ZM194.449 148.683L194.444 173.636H215.238V148.683H194.449ZM202.761 144.524H219.397V165.318H223.556V140.365H202.761V144.524ZM198.603 154.921H211.079V159.08H198.603V154.921ZM198.603 163.239H211.079V167.398H198.603V163.239Z" fill="#1C1C1C"/>
<circle cx="209" cy="157" r="40.8721" stroke="#1C1C1C" stroke-width="7.74418"/>
</g>
<defs>
<filter id="filter0_d_591_264" x="0" y="0" width="424" height="733" filterUnits="userSpaceOnUse" color-interpolation-filters="sRGB">
<feFlood flood-opacity="0" result="BackgroundImageFix"/>
<feColorMatrix in="SourceAlpha" type="matrix" values="0 0 0 0 0 0 0 0 0 0 0 0 0 0 0 0 0 0 127 0" result="hardAlpha"/>
<feOffset dx="24" dy="16"/>
<feGaussianBlur stdDeviation="2"/>
<feComposite in2="hardAlpha" operator="out"/>
<feColorMatrix type="matrix" values="0 0 0 0 0.218461 0 0 0 0 0.218461 0 0 0 0 0.218461 0 0 0 1 0"/>
<feBlend mode="normal" in2="BackgroundImageFix" result="effect1_dropShadow_591_264"/>
<feBlend mode="normal" in="SourceGraphic" in2="effect1_dropShadow_591_264" result="shape"/>
</filter>
</defs>
</svg>
