<svg width="76" height="46" viewBox="0 0 76 46" fill="none" xmlns="http://www.w3.org/2000/svg">
<path fill-rule="evenodd" clip-rule="evenodd" d="M52.6789 0.199951L7.66006 0.199951C6.13686 0.199951 4.90206 1.43588 4.90206 2.96049C4.90206 4.48509 6.13686 5.72102 7.66006 5.72102L33.3725 5.72102C34.2469 5.72102 34.9558 6.43054 34.9558 7.30578C34.9558 8.18101 34.2469 8.89053 33.3725 8.89053L20.9365 8.89053C19.3005 8.89053 17.9742 10.218 17.9742 11.8555C17.9742 13.4931 19.3005 14.8206 20.9365 14.8206L31.9517 14.8206C31.4609 16.0983 31.0818 17.4314 30.8262 18.808H11.3878C9.6107 18.808 8.1701 20.2499 8.1701 22.0286C8.1701 23.8073 9.6107 25.2493 11.3878 25.2493H30.5514C30.696 26.7265 30.9814 28.1625 31.394 29.5434L2.91122 29.5434C1.3034 29.5434 0 30.848 0 32.4573C0 34.0666 1.3034 35.3712 2.91122 35.3712L34.0836 35.3712C35.0755 36.9053 36.2465 38.3124 37.5669 39.5632L12.9196 39.5632C11.199 39.5632 9.80412 40.9593 9.80412 42.6815C9.80412 44.4038 11.199 45.7999 12.9196 45.7999L53.0439 45.7999C53.0627 45.7999 53.0815 45.7998 53.1003 45.7996C53.1405 45.7998 53.1807 45.7999 53.221 45.7999C65.8015 45.7999 76 35.592 76 22.9999C76 10.4079 65.8015 0.199951 53.221 0.199951C53.0976 0.199951 52.9745 0.200933 52.8516 0.202888C52.7943 0.200935 52.7367 0.199951 52.6789 0.199951ZM53.4309 42.858C64.3882 42.858 73.2707 33.9672 73.2707 22.9999C73.2707 12.0326 64.3882 3.14188 53.4309 3.14188C42.4737 3.14188 33.5912 12.0326 33.5912 22.9999C33.5912 33.9672 42.4737 42.858 53.4309 42.858Z" fill="#E8E8E8"/>
<path d="M0 11.8626C0 10.1798 1.36293 8.81561 3.0442 8.81561L7.24309 8.81561C8.92436 8.81561 10.2873 10.1798 10.2873 11.8626C10.2873 13.5454 8.92436 14.9096 7.24309 14.9096L3.0442 14.9096C1.36293 14.9096 0 13.5454 0 11.8626Z" fill="#E8E8E8"/>
<path d="M51.3648 27.354C52.9064 27.7614 56.2757 28.6521 56.8113 26.4978C57.3601 24.2954 54.0932 23.5616 52.4987 23.2035C52.3203 23.1634 52.1629 23.1281 52.0341 23.0959L50.9966 27.2583C51.1023 27.2845 51.2262 27.3173 51.3648 27.354Z" fill="#E8E8E8"/>
<path d="M52.8185 21.2716C54.1037 21.6149 56.9074 22.3637 57.3957 20.4058C57.8942 18.4033 55.1697 17.7996 53.839 17.5047C53.6893 17.4716 53.5572 17.4423 53.4494 17.4154L52.5087 21.1904C52.5975 21.2126 52.7018 21.2404 52.8185 21.2716Z" fill="#E8E8E8"/>
<path fill-rule="evenodd" clip-rule="evenodd" d="M49.3699 39.6103C58.5947 41.9123 67.9368 36.2944 70.2363 27.0632L70.236 27.0634C72.5358 17.8318 66.9228 8.48053 57.6986 6.17916C48.4767 3.87779 39.1346 9.49612 36.8361 18.7283C34.5356 27.9587 40.1489 37.3089 49.3699 39.6103ZM57.341 16.0918C59.7263 16.9141 61.4707 18.1467 61.128 20.4398L61.1287 20.4401C60.8808 22.1187 59.9509 22.9313 58.7164 23.2162C60.4113 24.0994 61.2739 25.4538 60.4522 27.8018C59.4326 30.7182 57.0101 30.9642 53.7884 30.354L53.0067 33.4899L51.1173 33.0188L51.8889 29.9249C51.3991 29.8031 50.8988 29.6739 50.3833 29.5339L49.609 32.6424L47.7219 32.1712L48.5037 29.0294C48.3222 28.9829 48.1395 28.9353 47.9554 28.8872C47.692 28.8185 47.426 28.7491 47.1567 28.6815L44.698 28.0681L45.636 25.9037C45.636 25.9037 47.0282 26.2741 47.0092 26.2467C47.5441 26.3792 47.7815 26.0301 47.875 25.7975L49.1105 20.8402C49.1602 20.8521 49.2086 20.8643 49.2552 20.8759C49.2738 20.8806 49.2922 20.8852 49.3102 20.8897C49.2348 20.8594 49.1664 20.84 49.1138 20.8266L49.9952 17.2879C50.0182 16.8861 49.8798 16.3793 49.1148 16.1881C49.1443 16.1684 47.7426 15.8468 47.7426 15.8468L48.2452 13.8272L50.8506 14.4784L50.8484 14.4881C51.2401 14.5857 51.6438 14.6782 52.0548 14.7719L52.829 11.6667L54.7172 12.1378L53.9584 15.1822C54.4654 15.2981 54.9755 15.4149 55.4722 15.5389L56.2254 12.5144L58.1148 12.9856L57.341 16.0918Z" fill="#E8E8E8"/>
</svg>
