<svg width="1383" height="777" viewBox="0 0 1383 777" fill="none" xmlns="http://www.w3.org/2000/svg">
<path d="M807 61.5L798.932 64.9316L795.5 73L792.068 64.9316L784 61.5L792.068 58.0684L795.5 50L798.932 58.0684L807 61.5Z" fill="#575757"/>
<path d="M349 205.5L340.932 208.932L337.5 217L334.068 208.932L326 205.5L334.068 202.068L337.5 194L340.932 202.068L349 205.5Z" fill="#575757"/>
<path d="M1123 398.5L1114.93 401.932L1111.5 410L1108.07 401.932L1100 398.5L1108.07 395.068L1111.5 387L1114.93 395.068L1123 398.5Z" fill="#575757"/>
<path d="M168 640.5L159.932 643.932L156.5 652L153.068 643.932L145 640.5L153.068 637.068L156.5 629L159.932 637.068L168 640.5Z" fill="#575757"/>
<path d="M1345 11.5L1336.93 14.9316L1333.5 23L1330.07 14.9316L1322 11.5L1330.07 8.06841L1333.5 -5.02681e-07L1336.93 8.06841L1345 11.5Z" fill="#575757"/>
<path d="M1383 765.5L1374.93 768.932L1371.5 777L1368.07 768.932L1360 765.5L1368.07 762.068L1371.5 754L1374.93 762.068L1383 765.5Z" fill="#575757"/>
<path d="M705 421.5L696.932 424.932L693.5 433L690.068 424.932L682 421.5L690.068 418.068L693.5 410L696.932 418.068L705 421.5Z" fill="#575757"/>
<path d="M558 742.5L549.932 745.932L546.5 754L543.068 745.932L535 742.5L543.068 739.068L546.5 731L549.932 739.068L558 742.5Z" fill="#575757"/>
<path d="M23 58.5L14.9316 61.9316L11.5 70L8.06841 61.9316L1.40467e-06 58.5L8.06841 55.0684L11.5 47L14.9316 55.0684L23 58.5Z" fill="#575757"/>
</svg>
